#!OML:ASF F:\VICON\USERDATA\INSTALL\rory3\rory3.ASF
:FULLY-SPECIFIED
:DEGREES
82
root 1.0505367492463265 17.935640030834083 33.174656933924005 -3.470606309210374 -1.137482260615239 -3.692577775009985
lfemur -0.07106818499204515 -1.8376965148564344 -17.902187174865098
ltibia 50.08588244598641
lfoot -10.944970523965736 -2.3819421755437706
ltoes -12.854796108030573
rfemur -11.437319623444761 3.3226564123985707 27.625834411241208
rtibia 30.08082835283941
rfoot -16.04657536061472 -10.147833693105559
rtoes -4.682364699175479
lowerback 10.627842676902327 -0.2376123899935524 1.6954232735871808
upperback -0.19750153360229766 -0.08448043388713539 2.2966883313456714
thorax -6.186734481133516 -0.00025084568967148613 2.4946827940161045
lowerneck -16.62146153012522 -3.23119020005454 -1.7619560956114269
upperneck 21.75785097286327 -4.290469082757056 1.1280758822940498
head 9.77699390896682 -2.014788176037634 0.13970702673226804
lclavicle -1.3551357802994255e-15 7.266333515356173e-16
lhumerus -25.73907904457675 0.027828681146492507 80.49997218763849
lradius 28.924644119108045
lwrist 9.631810363217497
lhand -29.042768400682256 17.586593363656487
lfingers 7.125019999999999
lthumb -1.9044860069589138 48.452649165800715
rclavicle -1.3551357800496938e-15 7.266333516857225e-16
rhumerus -30.824136629941812 -17.896200706439476 -77.74119561994554
rradius 23.35438118186234
rwrist 6.4684616213423265
rhand -17.8514824890762 21.90842560130485
rfingers 7.125019999999999
rthumb 8.167792090325543 -7.8082005736916065
83
root 1.0344474447375422 17.91534496850832 33.07738594975546 -3.6945379210597995 -1.3067060051269244 -3.696584386267462
lfemur -0.14032619216506337 -1.6265488651904416 -17.470872365758606
ltibia 50.49945353306011
lfoot -10.608102332259175 -2.604798474162504
ltoes -13.379666940671592
rfemur -10.803630931890417 3.5107720617252633 27.834441002781674
rtibia 29.959157037849543
rfoot -15.930384941866325 -10.19476170313741
rtoes -5.112239815925549
lowerback 10.66482276606794 -0.10448025967495372 1.7151273614577165
upperback -0.1934989094233697 0.13044717515583476 2.3036944465768787
thorax -6.183325196449177 0.09833803711234806 2.291810980866045
lowerneck -16.612058021536733 -3.2250011756732135 -1.7474413692581523
upperneck 21.818858269133692 -4.276556574052009 1.0849929980772064
head 9.789051984960713 -2.0125744057247785 0.12249679138099474
lclavicle -1.3551357803016099e-15 7.26633351534237e-16
lhumerus -25.254329847046282 0.25074493031720113 80.50205615437085
lradius 29.405858984913344
lwrist 9.374769753773096
lhand -29.184084993413446 17.352662060795044
lfingers 7.125019999999999
lthumb -2.0480424210228874 48.21778391214805
rclavicle -1.3551357800485977e-15 7.266333516863766e-16
rhumerus -31.48785058132501 -18.294685181104434 -77.7302813490706
rradius 23.25440376209925
rwrist 6.536406795940576
rhand -17.879665060783886 21.86352630693064
rfingers 7.125019999999999
rthumb 8.179709716409194 -7.759769264164329
84
root 1.0160767100459456 17.888195542994975 33.13833897742623 -3.9403802746942542 -1.417050932926606 -3.5695389675629894
lfemur -0.15567812856334928 -1.4897604970168237 -17.264669187891396
ltibia 50.79991749679707
lfoot -10.50275811255102 -2.9360134662317194
ltoes -15.909695703060606
rfemur -10.218508489596438 3.6149023125253117 27.901773776468026
rtibia 30.298649673139913
rfoot -15.518161305622662 -10.132086256877606
rtoes -5.780243760191188
lowerback 10.693804117366723 0.036220889211068086 1.6278547195892092
upperback -0.17061120413464578 0.33408030773667863 2.2813771417902458
thorax -6.171304180659091 0.1912967984291243 2.0952954513738398
lowerneck -16.64985846064372 -3.2256918625477526 -1.7159162437407622
upperneck 21.892012515444698 -4.290447733687082 1.0288937241623666
head 9.844925971048983 -2.017234512836759 0.08732502210375248
lclavicle -1.3551357803081247e-15 7.266333515302582e-16
lhumerus -25.17077241429134 0.15429184721680045 80.39834947881818
lradius 29.825337583965073
lwrist 9.212006000842567
lhand -29.38675360347594 17.310863897158107
lfingers 7.125019999999999
lthumb -2.319946032739651 48.036437531347225
rclavicle -1.3551357800459207e-15 7.266333516878752e-16
rhumerus -31.893681844638998 -18.51953306947695 -77.75532058649284
rradius 23.182695118610066
rwrist 6.610867014952303
rhand -17.87725176047022 21.887785804835502
rfingers 7.125019999999999
rthumb 8.229295325296302 -7.643746781665906
85
root 1.0022681723921545 17.867640685407768 33.443282660625854 -4.001325647217773 -1.362866123715572 -3.530910110700959
lfemur -0.5057879796167937 -1.3881709339724102 -17.043284003767763
ltibia 51.37774102541901
lfoot -10.462937609201738 -3.168544549868114
ltoes -17.453071592056105
rfemur -9.691814583831338 3.601744147980231 27.940797308406008
rtibia 30.83101020149006
rfoot -15.401319383549133 -10.16695211583309
rtoes -5.83501012122328
lowerback 10.711111305851064 0.15011392159016063 1.6222161732066578
upperback -0.1316046110263538 0.5273664239453953 2.264262704041424
thorax -6.156663430235943 0.2818895907997235 1.885004078947815
lowerneck -16.673163401427733 -3.237768507168386 -1.703960405651984
upperneck 21.942998531954533 -4.3228129571646825 0.9709640843991773
head 9.876697126053411 -2.0311452012400557 0.05576347781538846
lclavicle -1.3551357803125356e-15 7.26633351527567e-16
lhumerus -24.822064818889544 0.25352696958139775 80.47103302875671
lradius 30.12803056911333
lwrist 9.089476583242487
lhand -29.49221188253845 17.462328340977493
lfingers 7.125019999999999
lthumb -2.4592986939929635 48.18879072336415
rclavicle -1.3551357800393345e-15 7.266333516917767e-16
rhumerus -32.05415378491696 -18.618978551159003 -77.83206705875465
rradius 23.15290249118341
rwrist 6.6534208020385215
rhand -17.871229661207273 21.86648266013305
rfingers 7.125019999999999
rthumb 8.23101658234622 -7.707527926169861
86
root 1.0043125210165043 17.867837519178895 33.92797152011326 -3.7762561172497664 -1.0493645783764427 -3.6900363991757423
lfemur -1.0714366357059255 -1.3316659815407788 -16.689005449098612
ltibia 52.25712387754509
lfoot -10.516377269751919 -3.268170358594814
ltoes -17.244795594577443
rfemur -9.253572179411155 3.46121995287831 27.974622238069227
rtibia 30.840928153691994
rfoot -14.898319871215985 -10.09971577344209
rtoes -6.628091023943315
lowerback 10.705245044301163 0.16723602091830836 1.7469630232383786
upperback -0.12011299310492371 0.5830633133925133 2.2483391280826006
thorax -6.15491040939584 0.3164414783068459 1.7274020422934253
lowerneck -16.693279569964933 -3.250479554632771 -1.6943227539065544
upperneck 21.940738548316652 -4.339016267520337 0.9061406507278285
head 9.890935804709413 -2.039635003729646 0.023903087105760445
lclavicle -1.3551357803127192e-15 7.266333515273863e-16
lhumerus -25.20863620518522 -0.37280772931556827 80.33175547793827
lradius 30.326105430099314
lwrist 8.985069660304365
lhand -29.469072601234245 18.324839352936173
lfingers 7.125019999999999
lthumb -2.462768321569334 49.075516312235905
rclavicle -1.3551357800422781e-15 7.266333516899262e-16
rhumerus -32.05563284239978 -18.648197423478457 -77.97200033157957
rradius 23.124331866214007
rwrist 6.77655726648114
rhand -17.90512692131999 21.794154051548926
rfingers 7.125019999999999
rthumb 8.18553628680732 -7.9989092596229545
87
root 1.0007983442103208 17.86539360543082 34.20482333337638 -3.7416135535357733 -0.8544621736715883 -3.4992399291163174
lfemur -1.158079239953909 -1.3908293708449264 -16.91460197984051
ltibia 52.78991200575025
lfoot -10.753639009102105 -3.4900954188463817
ltoes -15.85983069302931
rfemur -8.902145599767106 3.326904077244185 27.705253312141974
rtibia 30.9580818713565
rfoot -14.838182740679297 -10.215643234232923
rtoes -6.3878096217061335
lowerback 10.730431377705115 0.1754126988690058 1.5412618698281102
upperback -0.08772711274850438 0.5491852392253783 2.1872967290831555
thorax -6.150663729625216 0.32360577362409065 1.7267992688032638
lowerneck -16.72465450850884 -3.2662949348947263 -1.6913233856354506
upperneck 21.86958148659144 -4.358821101583978 0.9115107704062098
head 9.875888310992657 -2.048082363818555 0.0213360590128559
lclavicle -1.3551357803115578e-15 7.266333515280088e-16
lhumerus -24.678995418030357 -0.25830383111209043 80.58098328133109
lradius 30.40985459761604
lwrist 8.806746057021808
lhand -29.566000380971094 18.457821106801212
lfingers 7.125019999999999
lthumb -2.628114149895273 49.052833088898886
rclavicle -1.3551357800421933e-15 7.266333516898891e-16
rhumerus -32.03590671252522 -18.718420407479435 -78.08261691545914
rradius 23.095958315386554
rwrist 6.858871093775809
rhand -17.967436825477247 21.68118245004156
rfingers 7.125019999999999
rthumb 8.149377176700467 -8.224300606291056
